<mxfile host="app.diagrams.net" modified="2024-05-24T07:39:01.427Z" agent="Mozilla/5.0 (Windows NT 10.0; Win64; x64) AppleWebKit/537.36 (KHTML, like Gecko) Chrome/124.0.0.0 Safari/537.36" etag="BrJ2X07ie4HSfbyEAXbM" version="24.4.7" type="google">
  <diagram name="Page-1" id="UDVak2zGD34z41W-_LPq">
    <mxGraphModel grid="1" page="1" gridSize="10" guides="1" tooltips="1" connect="1" arrows="1" fold="1" pageScale="1" pageWidth="827" pageHeight="1169" math="0" shadow="0">
      <root>
        <mxCell id="0" />
        <mxCell id="1" parent="0" />
        <mxCell id="CGb-4clw9ejEuv2t-6MB-18" value="" style="ellipse;shape=doubleEllipse;whiteSpace=wrap;html=1;aspect=fixed;rounded=1;fillColor=#00FF77;" vertex="1" parent="1">
          <mxGeometry x="550" y="180" width="250" height="250" as="geometry" />
        </mxCell>
        <mxCell id="CGb-4clw9ejEuv2t-6MB-19" value="" style="shape=switch;whiteSpace=wrap;html=1;rounded=1;fillColor=#FFFFFF;" vertex="1" parent="1">
          <mxGeometry x="590" y="220" width="170" height="170" as="geometry" />
        </mxCell>
        <mxCell id="CGb-4clw9ejEuv2t-6MB-22" value="" style="shape=cross;whiteSpace=wrap;html=1;rounded=1;fillColor=#FF1900;" vertex="1" parent="1">
          <mxGeometry x="635" y="265" width="80" height="80" as="geometry" />
        </mxCell>
        <mxCell id="CGb-4clw9ejEuv2t-6MB-27" value="" style="triangle;whiteSpace=wrap;html=1;rounded=1;fillColor=#333333;" vertex="1" parent="1">
          <mxGeometry x="560" y="270" width="70" height="70" as="geometry" />
        </mxCell>
        <mxCell id="CGb-4clw9ejEuv2t-6MB-29" value="" style="triangle;whiteSpace=wrap;html=1;direction=south;rounded=1;fillColor=#000000;" vertex="1" parent="1">
          <mxGeometry x="637.5" y="190" width="75" height="70" as="geometry" />
        </mxCell>
        <mxCell id="CGb-4clw9ejEuv2t-6MB-30" value="" style="triangle;whiteSpace=wrap;html=1;direction=west;rounded=1;fillColor=#333333;" vertex="1" parent="1">
          <mxGeometry x="720" y="267.5" width="70" height="75" as="geometry" />
        </mxCell>
        <mxCell id="CGb-4clw9ejEuv2t-6MB-31" value="" style="triangle;whiteSpace=wrap;html=1;direction=north;rounded=1;fillColor=#333333;" vertex="1" parent="1">
          <mxGeometry x="637.5" y="350" width="75" height="70" as="geometry" />
        </mxCell>
      </root>
    </mxGraphModel>
  </diagram>
</mxfile>
